<svg viewBox="0 0 247 44" xmlns="http://www.w3.org/2000/svg" xmlns:xlink="http://www.w3.org/1999/xlink" fill="transparent"><g id="Canvas" transform="translate(624 -7626)"><path d="M-624 7626h247v44h-247z"/><clipPath id="clip-0" clip-rule="evenodd"><path d="M-714 7608H566v872H-714v-872z"/></clipPath><g id="Весна в словах. Период 1" clip-path="url(#clip-0)"><path d="M-714 7608H566v872H-714v-872z"/><g id="Component"><use xlink:href="#logo_path0_fill" transform="translate(-714 7608)" id="Rectangle 2.10"/><g id="logo_chitai-gorod"><g id="Group"><g id="Group" fill="#4D4D4D"><use xlink:href="#logo_path1_fill" transform="translate(-624 7662.51)" id="Vector"/><use xlink:href="#logo_path2_fill" transform="translate(-618.457 7662.51)" id="Vector"/><use xlink:href="#logo_path3_fill" transform="translate(-612.526 7662.51)" id="Vector"/><use xlink:href="#logo_path4_fill" transform="translate(-607.265 7662.51)" id="Vector"/><use xlink:href="#logo_path5_fill" transform="translate(-598.337 7662.51)" id="Vector"/><use xlink:href="#logo_path6_fill" transform="translate(-592.438 7662.51)" id="Vector"/><use xlink:href="#logo_path7_fill" transform="translate(-584.924 7660.46)" id="Vector"/><use xlink:href="#logo_path8_fill" transform="translate(-575.976 7662.51)" id="Vector"/><use xlink:href="#logo_path9_fill" transform="translate(-570.045 7662.51)" id="Vector"/><use xlink:href="#logo_path10_fill" transform="translate(-564.742 7662.51)" id="Vector"/><use xlink:href="#logo_path11_fill" transform="translate(-559.44 7662.35)" id="Vector"/><use xlink:href="#logo_path12_fill" transform="translate(-553.425 7662.34)" id="Vector"/><use xlink:href="#logo_path13_fill" transform="translate(-547.106 7662.51)" id="Vector"/><use xlink:href="#logo_path14_fill" transform="translate(-541.458 7662.35)" id="Vector"/><use xlink:href="#logo_path15_fill" transform="translate(-536.073 7662.51)" id="Vector"/><use xlink:href="#logo_path16_fill" transform="translate(-530.644 7664.56)" id="Vector"/><use xlink:href="#logo_path17_fill" transform="translate(-526.317 7662.51)" id="Vector"/><use xlink:href="#logo_path18_fill" transform="translate(-519.317 7662.36)" id="Vector"/><use xlink:href="#logo_path19_fill" transform="translate(-513.271 7662.51)" id="Vector"/><use xlink:href="#logo_path20_fill" transform="translate(-509.079 7662.36)" id="Vector"/><use xlink:href="#logo_path21_fill" transform="translate(-503.453 7662.35)" id="Vector"/><use xlink:href="#logo_path22_fill" transform="translate(-497.71 7662.51)" id="Vector"/><use xlink:href="#logo_path23_fill" transform="translate(-491.779 7662.51)" id="Vector"/></g><use xlink:href="#logo_path24_fill" transform="translate(-624 7626)" fill="#26A9E0" id="Vector"/></g></g></g></g></g><defs><path id="logo_path0_fill" d="M0 0h1280v80H0V0z"/><path id="logo_path1_fill" d="M3.71 5.409L1.74 2.746l-.85.828v1.834H0V0h.89v2.579L3.365 0h1.194l-2.18 2.127 2.463 3.28H3.71v.002z"/><path id="logo_path2_fill" d="M0 5.408V0h.89v2.149h2.704V0h.89v5.408h-.89V2.935H.891v2.473H0z"/><path id="logo_path3_fill" d="M0 5.408V0h.89v4.413h.022L3.342 0h1.143v5.408h-.89V.996h-.022l-2.43 4.412H0z"/><path id="logo_path4_fill" d="M1.1 5.408H0l2.368-3.186L.304 0h1.1l2.2 2.484h.022V0h.89v2.484h.021L6.737 0h1.101L5.773 2.222l2.368 3.186h-1.1l-1.855-2.62-.67.68v1.94h-.891v-1.94l-.67-.68L1.1 5.408z"/><path id="logo_path5_fill" d="M0 5.408V0h.89v2.149h2.704V0h.89v5.408h-.89V2.935H.891v2.473H0z"/><path id="logo_path6_fill" d="M2.61 5.408H0V0h.89v2.066h1.677c1.059 0 1.76.628 1.76 1.655 0 1.016-.66 1.687-1.718 1.687zM.89 2.829v1.794h1.394c.734 0 1.122-.326 1.122-.902 0-.577-.378-.89-1.122-.89H.891v-.002zM6.079 0v5.408h-.891V0h.89z"/><path id="logo_path7_fill" d="M0 7.46V2.054h.89v4.413h.022l2.43-4.413h1.143v5.408h-.89V3.049h-.022l-2.43 4.412H0zm2.253-6.015C1.383 1.445.765.838.66 0h.535c.146.502.513.817 1.047.817.545 0 .88-.315 1.048-.817h.535c-.136.838-.66 1.445-1.572 1.445z"/><path id="logo_path8_fill" d="M0 5.408V0h.89v4.413h.022L3.342 0h1.143v5.408h-.89V.996h-.022l-2.43 4.412H0z"/><path id="logo_path9_fill" d="M0 5.408V0h.89v2.149h2.704V0h.89v5.408h-.89V2.935H.891v2.473H0z"/><path id="logo_path10_fill" d="M2.83.786v4.622h-.891V.786H0V0h4.769v.786h-1.94z"/><path id="logo_path11_fill" d="M2.546 5.743C.954 5.743 0 4.695 0 2.935 0 1.185 1.016 0 2.515 0c1.781 0 2.452 1.415 2.452 2.977v.126H.901l-.01.062c0 1.153.639 1.844 1.687 1.844.775 0 1.205-.335 1.456-1.153h.87c-.272 1.248-1.08 1.887-2.358 1.887zM2.494.733c-.87 0-1.478.63-1.593 1.646h3.144C3.96 1.352 3.385.734 2.494.734z"/><path id="logo_path12_fill" d="M.838.932C1.258.262 1.865 0 2.662 0 4.17 0 5.124 1.09 5.124 2.84c0 1.749-.943 2.87-2.42 2.87-.797 0-1.352-.261-1.813-.89v2.838H0V.166h.838v.766zM.86 2.849c0 1.31.65 2.107 1.698 2.107 1.016 0 1.646-.806 1.646-2.107 0-1.31-.629-2.106-1.677-2.106C1.488.743.86 1.54.86 2.85z"/><path id="logo_path13_fill" d="M0 5.408V0h.89v2.149h2.704V0h.89v5.408h-.89V2.935H.891v2.473H0z"/><path id="logo_path14_fill" d="M2.546 5.743C.954 5.743 0 4.695 0 2.935 0 1.185 1.016 0 2.515 0c1.781 0 2.452 1.415 2.452 2.977v.126H.901l-.01.062c0 1.153.639 1.844 1.687 1.844.775 0 1.205-.335 1.456-1.153h.87c-.272 1.248-1.08 1.887-2.358 1.887zM2.494.733c-.87 0-1.478.63-1.593 1.646h3.144C3.96 1.352 3.385.734 2.494.734z"/><path id="logo_path15_fill" d="M2.83.786v4.622h-.891V.786H0V0h4.769v.786h-1.94z"/><path id="logo_path16_fill" d="M3.05.88H0V0h3.05v.88z"/><path id="logo_path17_fill" d="M4.977 5.408V1.143h-.031L3.343 5.408h-.818L.922 1.143H.891v4.265H0V0h1.278l1.646 4.382h.02L4.59 0h1.278v5.408h-.89z"/><path id="logo_path18_fill" d="M5.083 5.533a1.743 1.743 0 0 1-.608.104c-.503 0-.775-.284-.786-.797-.534.599-1.12.86-1.96.86C.662 5.7 0 5.112 0 4.17c0-.963.64-1.53 1.918-1.687 1.289-.157 1.729-.125 1.729-.859 0-.576-.43-.89-1.226-.89-.828 0-1.258.303-1.342 1.1H.21C.242.68 1.08 0 2.474 0c.723 0 1.341.189 1.698.524.377.367.366.923.366 1.404 0 .806-.042 1.603-.042 2.41 0 .398.095.534.367.534.084 0 .126-.01.22-.032v.693h.001zm-2.63-2.464c-.65.084-1.53.157-1.53 1.027 0 .555.409.9 1.08.9.838 0 1.644-.576 1.644-1.266v-.986c-.335.252-.797.273-1.194.325z"/><path id="logo_path19_fill" d="M.89.786v4.622H0V0h3.71v.786H.89z"/><path id="logo_path20_fill" d="M5.082 5.533a1.743 1.743 0 0 1-.608.104c-.503 0-.775-.284-.785-.797-.535.599-1.122.86-1.96.86C.66 5.7 0 5.112 0 4.17c0-.963.64-1.53 1.918-1.687 1.289-.157 1.729-.125 1.729-.859 0-.576-.43-.89-1.226-.89-.828 0-1.258.303-1.342 1.1H.21C.242.68 1.08 0 2.474 0c.723 0 1.341.189 1.698.524.377.367.366.923.366 1.404 0 .806-.042 1.603-.042 2.41 0 .398.095.534.367.534.084 0 .126-.01.22-.032v.693zm-2.63-2.464c-.65.084-1.53.157-1.53 1.027 0 .555.408.9 1.079.9.838 0 1.645-.576 1.645-1.266v-.986c-.335.252-.797.273-1.195.325z"/><path id="logo_path21_fill" d="M2.38 0c1.11 0 2.032.452 2.032 1.458 0 .618-.43 1.047-.87 1.142v.02c.504.094 1.049.503 1.049 1.341 0 1.174-1.102 1.77-2.244 1.77C.933 5.732.063 5.052 0 3.878h.901c.053.776.64 1.132 1.436 1.132.849 0 1.33-.47 1.33-1.026 0-.545-.324-.88-1.153-.88H1.77V2.38h.597c.63 0 1.143-.241 1.143-.88 0-.399-.41-.775-1.143-.775-.639 0-1.299.261-1.372.995h-.9C.18.389 1.29 0 2.38 0z"/><path id="logo_path22_fill" d="M0 5.408V0h.89v4.413h.022L3.342 0h1.144v5.408h-.891V.996h-.022l-2.43 4.412H0z"/><path id="logo_path23_fill" d="M0 5.408V0h.89v2.149h2.704V0h.89v5.408h-.89V2.935H.891v2.473H0z"/><path id="logo_path24_fill" d="M104.601 6.606H81.769L73.725 21.43h-.089V6.607h-4.684v21.4h5.282l8.042-14.846h.092v14.846h4.682V10.604h6.419v17.403h4.712V10.604h6.422V6.607h-.002zm-70.41 21.54h5.02V6.663h-5.02v21.481zm6.232-21.157l3.282 21.226 2.548-.395-3.28-21.228-2.55.397zm21.582 8.396c-.692.12-2.942.483-4.233.483-2.4 0-3.331-.936-3.331-3.518V6.606h-4.683v5.682c0 5.5 2.851 7.486 7.653 7.486 1.263 0 3.573-.39 4.593-.601v8.834h4.682v-21.4h-4.682v8.778zm68.583-10.432c3.034 0 5.167-2.106 5.413-4.953h-2.909c-.245 1.078-1.08 1.979-2.503 1.979-1.422 0-2.256-.901-2.508-1.979h-2.905c.246 2.847 2.379 4.953 5.412 4.953zM0 28.145h17.19l1.67-21.481H0v21.481zM21.426 6.664l-1.647 21.481h5.494L24.175 6.664h-2.749zm9.014 21.481h2.466V6.664h-3.568l1.102 21.481zM195.96 6.607h-9.214v21.4h4.652v-7.693h4.799c4.293 0 7.593-2.165 7.593-6.821.001-4.722-3.208-6.887-7.83-6.887zm-.388 10.01h-4.174V10.46h4.201c2.066 0 3.629.808 3.629 3.091 0 2.375-1.562 3.067-3.656 3.067zm-20.17-10.522c-6.392 0-10.593 4.45-10.593 11.245 0 6.703 4.232 11.182 10.561 11.182 6.276 0 10.504-4.506 10.504-11.182 0-6.703-4.228-11.245-10.472-11.245zm0 18.547c-3.632-.028-5.852-2.794-5.852-7.395 0-4.447 2.253-7.303 5.792-7.303 3.568 0 5.794 2.793 5.794 7.303-.001 4.574-2.191 7.395-5.734 7.395zM107.876 6.574l-8.134 21.433h4.803l1.741-4.775h7.954l1.675 4.775h4.925l-8.133-21.433h-4.831zm-.449 13.23l2.848-7.97 2.819 7.97h-5.667zm137.128 4.212V6.606h-15.213v3.245c0 6.317-.899 10.794-3.421 14.165h-1.618v9.5h4.527v-5.51h13.566v5.51h4.534v-9.5h-2.375zm-4.681 0h-8.731c1.889-3.458 2.851-7.367 2.851-13.232v-.358h5.88v13.59zM214.91 6.095c-6.393 0-10.594 4.45-10.594 11.245 0 6.703 4.234 11.182 10.565 11.182 6.271 0 10.503-4.506 10.503-11.182 0-6.703-4.231-11.245-10.474-11.245zm0 18.547c-3.63-.028-5.853-2.794-5.853-7.395 0-4.447 2.251-7.303 5.796-7.303 3.569 0 5.789 2.793 5.789 7.303 0 4.574-2.191 7.395-5.732 7.395zM165.89 6.607h-12.323v21.538h4.713V10.63h7.61V6.607zm-39.907 14.822h-.09V6.607h-4.684v21.4h5.281l8.044-14.846h.084v14.846h4.686v-21.4h-5.281l-8.04 14.822zm15.949.315h9.01v-3.808h-9.01v3.808z"/></defs></svg>